 <svg version="1.0" xmlns="http://www.w3.org/2000/svg"  width="265.000000pt" height="147.000000pt" viewBox="0 0 265.000000 147.000000"  preserveAspectRatio="xMidYMid meet">  <g transform="translate(0.000000,147.000000) scale(0.100000,-0.100000)" fill="#000000" stroke="none"> <path d="M8 730 l2 -730 1318 2 1317 3 3 728 2 727 -1322 0 -1323 0 3 -730z m2632 0 l0 -720 -1310 0 -1310 0 0 720 0 720 1310 0 1310 0 0 -720z"/> <path d="M2209 1241 c-42 -14 -75 -40 -105 -83 l-29 -41 -3 -335 -3 -334 25 -52 c42 -84 106 -116 236 -116 108 1 175 35 217 113 16 29 18 66 18 372 l0 340 -24 42 c-14 24 -42 55 -64 70 -37 26 -49 28 -141 30 -56 1 -113 -2 -127 -6z m225 -21 c14 -5 39 -22 56 -38 58 -56 60 -71 60 -409 0 -172 -4 -323 -10 -342 -12 -43 -64 -98 -109 -117 -20 -8 -66 -14 -115 -14 -103 0 -154 22 -193 81 l-28 43 0 346 0 347 28 36 c45 59 87 76 194 77 50 0 103 -4 117 -10z"/> </g> </svg> 