 <svg version="1.0" xmlns="http://www.w3.org/2000/svg"  width="127.000000pt" height="117.000000pt" viewBox="0 0 127.000000 117.000000"  preserveAspectRatio="xMidYMid meet">  <g transform="translate(0.000000,117.000000) scale(0.100000,-0.100000)" fill="#000000" stroke="none"> <path d="M25 1162 c-20 -3 -20 -9 -17 -582 l2 -580 630 0 630 0 0 579 0 579 -432 6 c-401 6 -765 5 -813 -2z m195 -32 c-65 -65 -20 -161 81 -174 57 -8 522 -7 562 1 15 3 38 16 52 29 34 31 36 106 3 141 l-21 23 181 0 182 0 -1 -112 c0 -85 -3 -108 -11 -92 -28 58 -140 58 -179 1 -19 -29 -27 -561 -9 -626 23 -87 125 -108 182 -37 17 20 18 15 18 -126 l0 -148 -181 0 -180 0 20 26 c33 41 29 108 -8 145 l-29 29 -311 0 -311 0 -32 -29 c-28 -25 -33 -36 -33 -74 0 -34 6 -52 24 -71 l24 -26 -111 0 -112 0 0 570 0 570 110 0 c110 0 110 0 90 -20z m688 -20 c27 -40 24 -82 -9 -115 -19 -19 -33 -20 -330 -20 l-311 0 -24 28 c-33 39 -31 81 5 118 l30 29 307 -2 308 -3 24 -35z m318 -166 l24 -25 0 -304 0 -303 -31 -26 c-41 -35 -83 -34 -120 3 l-29 29 0 292 c0 288 3 314 34 346 32 31 88 26 122 -12z m-322 -785 c36 -42 33 -74 -8 -115 l-35 -35 -299 3 c-278 3 -301 4 -321 22 -29 26 -36 76 -17 114 9 17 21 32 28 35 7 3 151 6 320 6 l306 1 26 -31z"/> </g> </svg> 
 