<svg version="1.0" xmlns="http://www.w3.org/2000/svg"  width="200px" height="200px" viewBox="0 0 300.000000 322.000000"  preserveAspectRatio="xMidYMid meet">  <g transform="translate(0.000000,322.000000) scale(0.100000,-0.100000)" fill="#BF2EF0" stroke="none"> <path d="M1375 2620 c-174 -37 -341 -157 -425 -303 -44 -76 -79 -195 -83 -279 l-3 -73 -45 3 c-34 3 -51 -2 -72 -18 l-27 -21 0 -145 c0 -181 3 -186 113 -182 l72 3 6 260 c5 234 8 266 27 319 47 128 126 230 230 300 202 134 452 134 655 -1 106 -70 180 -168 230 -303 18 -48 21 -84 25 -299 4 -259 -5 -365 -39 -456 -41 -111 -119 -175 -232 -193 -56 -9 -57 -8 -57 15 0 27 -32 63 -57 63 -168 5 -237 0 -255 -18 -38 -38 -35 -145 4 -182 19 -18 36 -20 139 -20 103 0 119 2 143 21 14 11 26 31 26 43 0 20 8 24 67 35 167 31 254 129 291 327 l16 84 58 0 c83 0 88 10 88 186 l0 143 -27 21 c-21 16 -38 21 -72 18 l-44 -3 -4 73 c-13 250 -178 467 -423 557 -60 21 -97 28 -180 31 -58 2 -123 -1 -145 -6z m-510 -840 l0 -141 -50 3 -50 3 -3 124 c-1 69 0 131 2 138 4 8 23 13 53 13 l48 0 0 -140z m1360 0 l0 -135 -50 -3 -50 -3 0 141 0 141 50 -3 50 -3 0 -135z m-519 -533 c3 -13 4 -41 2 -63 l-3 -39 -120 0 -120 0 -3 49 c-5 77 -7 76 122 76 113 0 116 -1 122 -23z"/> <path d="M1269 2244 c-10 -12 -8 -19 8 -37 35 -39 34 -43 -23 -82 -70 -46 -118 -63 -214 -79 -54 -8 -75 -16 -75 -26 0 -10 13 -16 37 -18 38 -3 38 -3 24 -30 -34 -67 -46 -205 -25 -304 18 -89 74 -192 139 -259 l59 -60 3 -160 c2 -87 0 -159 -3 -159 -4 0 -12 7 -19 15 -7 8 -16 12 -21 9 -6 -3 -63 -103 -103 -181 -1 -1 -38 -6 -83 -13 -234 -32 -372 -108 -456 -252 -34 -58 -63 -166 -49 -180 19 -19 39 0 46 42 16 102 109 226 206 275 64 32 174 62 260 71 l70 7 54 -51 c29 -28 79 -67 111 -88 53 -33 163 -84 183 -84 4 0 27 36 51 80 23 44 44 80 46 80 2 0 23 -36 46 -80 24 -44 47 -80 51 -80 20 0 130 51 183 84 32 21 82 60 111 88 l54 51 70 -7 c86 -9 196 -39 260 -71 97 -49 190 -173 206 -275 7 -42 27 -61 46 -42 14 14 -16 125 -49 182 -83 142 -225 220 -453 250 -47 7 -85 12 -86 13 -38 75 -97 177 -102 181 -5 3 -40 -26 -80 -64 -88 -84 -237 -165 -276 -150 -53 20 -143 70 -184 101 l-43 34 -2 173 c-1 94 0 172 2 172 3 0 24 -9 48 -21 35 -17 46 -19 58 -9 20 17 15 22 -57 58 -180 89 -290 302 -258 504 6 40 19 90 29 113 16 36 23 42 79 59 34 10 91 38 127 62 l65 44 55 -44 c133 -109 339 -197 518 -221 l47 -6 0 -72 c0 -139 -49 -256 -147 -354 -35 -35 -61 -68 -58 -73 13 -21 43 -7 92 43 106 108 154 221 156 370 1 76 3 87 19 87 11 0 18 7 18 18 0 16 -14 20 -93 30 -52 7 -134 23 -182 37 -169 49 -370 173 -435 268 -30 44 -44 51 -61 31z m-36 -1310 c34 -30 98 -73 141 -95 44 -22 82 -42 84 -43 2 -3 -62 -128 -74 -144 -1 -2 -32 10 -67 27 -67 32 -164 100 -205 144 l-23 24 36 62 c19 35 35 67 35 72 0 17 12 9 73 -47z m597 47 c0 -5 16 -37 35 -72 l36 -62 -23 -24 c-41 -44 -138 -112 -205 -144 -35 -17 -66 -29 -67 -27 -12 16 -76 141 -74 144 2 1 40 21 84 43 44 22 106 65 139 95 60 55 75 64 75 47z"/> </g> </svg>