<svg version="1.0" xmlns="http://www.w3.org/2000/svg"  width="200px" height="200px" viewBox="0 0 300.000000 300.000000"  preserveAspectRatio="xMidYMid meet">  <g transform="translate(0.000000,300.000000) scale(0.100000,-0.100000)" fill="#BF2EF0" stroke="none"> <path d="M407 2736 c-79 -29 -157 -112 -178 -190 -18 -66 -6 -171 29 -254 34 -81 137 -241 205 -317 l44 -49 34 38 c100 113 197 272 234 385 51 156 -11 311 -150 377 -58 27 -156 32 -218 10z m222 -45 c143 -73 174 -246 79 -436 -32 -64 -121 -196 -165 -244 l-40 -45 -61 77 c-211 266 -251 491 -110 612 22 19 59 41 82 49 57 22 159 15 215 -13z"/> <path d="M450 2624 c-72 -31 -110 -86 -110 -159 0 -130 135 -214 245 -152 73 41 108 153 71 225 -21 41 -68 81 -107 92 -44 13 -57 12 -99 -6z m116 -35 c45 -21 84 -81 84 -128 0 -46 -39 -102 -87 -123 -57 -25 -101 -18 -148 23 -97 86 -38 240 94 248 8 1 34 -8 57 -20z"/> <path d="M1255 2005 c-5 -2 -22 -6 -36 -9 -21 -5 -25 -10 -22 -29 4 -19 9 -22 39 -19 30 4 34 8 34 33 0 16 -1 29 -2 28 -2 0 -7 -2 -13 -4z"/> <path d="M1390 1976 c0 -42 79 -47 80 -4 0 6 -55 28 -71 28 -5 0 -9 -11 -9 -24z"/> <path d="M372 1959 c-113 -57 -55 -151 102 -166 118 -11 226 35 226 96 0 32 -21 54 -72 75 l-36 16 -43 -51 -42 -51 -46 51 -46 52 -43 -22z m74 -54 c47 -62 59 -63 111 -10 l45 48 35 -17 c76 -36 9 -96 -116 -103 -74 -4 -157 20 -175 50 -9 15 -6 23 17 43 38 32 51 30 83 -11z"/> <path d="M1038 1948 c-16 -5 -28 -17 -28 -27 0 -27 8 -30 46 -18 23 7 33 15 29 25 -3 7 -5 18 -5 23 0 11 -7 10 -42 -3z"/> <path d="M820 1885 c0 -22 4 -25 40 -25 22 0 40 4 40 9 0 28 -14 41 -46 41 -30 0 -34 -3 -34 -25z"/> <path d="M1560 1895 c-10 -13 -9 -19 6 -38 10 -12 20 -23 21 -25 0 -2 11 1 22 8 l22 11 -21 30 c-24 33 -32 35 -50 14z"/> <path d="M1637 1723 c-11 -3 -16 -10 -13 -20 3 -8 6 -23 6 -34 0 -14 7 -19 26 -19 22 0 25 3 20 23 -3 12 -6 30 -6 40 0 17 -2 18 -33 10z"/> <path d="M1586 1517 c-17 -30 -17 -32 1 -44 15 -12 20 -11 31 4 31 41 32 50 9 60 -20 9 -25 7 -41 -20z"/> <path d="M1497 1342 c-14 -34 -13 -38 2 -44 25 -10 27 -10 39 17 16 35 15 43 -7 54 -16 9 -21 5 -34 -27z"/> <path d="M1460 1168 c0 -7 -3 -23 -6 -35 -5 -19 -2 -23 19 -23 21 0 25 5 29 35 4 31 1 35 -19 35 -13 0 -23 -6 -23 -12z"/> <path d="M1492 989 c-22 -8 -22 -10 -7 -38 19 -38 26 -42 48 -26 17 12 17 14 0 43 -15 24 -22 28 -41 21z"/> <path d="M1613 841 c-10 -16 -7 -21 22 -37 37 -20 39 -19 49 12 5 16 2 23 -11 27 -10 2 -25 8 -33 11 -9 4 -20 -1 -27 -13z"/> <path d="M1795 770 c-8 -26 -8 -26 32 -34 26 -6 32 -4 38 14 8 26 8 26 -32 34 -26 6 -32 4 -38 -14z"/> <path d="M1980 716 c0 -14 6 -26 13 -26 6 0 22 -3 33 -6 16 -4 23 0 27 15 6 24 4 26 -40 36 -31 6 -33 5 -33 -19z"/> <path d="M2166 664 c-9 -22 -9 -22 25 -39 34 -18 34 -18 43 11 5 16 0 23 -19 32 -34 16 -42 15 -49 -4z"/> <path d="M2590 534 c-13 -44 -25 -81 -27 -83 -2 -3 -14 6 -27 18 l-23 22 -16 -24 c-14 -22 -14 -24 10 -39 l26 -15 -73 -44 -73 -43 189 -38 c103 -21 192 -37 196 -36 4 2 -24 71 -62 153 -39 83 -76 163 -83 179 -13 28 -13 28 -37 -50z m88 -126 c28 -62 50 -114 48 -115 -3 -3 -197 34 -230 44 -16 5 -15 8 13 25 17 11 31 23 31 27 0 4 13 22 29 40 17 19 33 46 36 62 4 16 10 29 14 29 4 0 30 -51 59 -112z"/> <path d="M2339 578 c-11 -21 -10 -24 32 -48 12 -7 21 -4 33 9 16 18 15 20 -18 39 l-36 21 -11 -21z"/> </g> </svg>