<svg version="1.0" xmlns="http://www.w3.org/2000/svg"  width="250px" height="200px" viewBox="0 0 300.000000 206.000000"  preserveAspectRatio="xMidYMid meet">  <g transform="translate(0.000000,206.000000) scale(0.100000,-0.100000)" fill="#BF2EF0" stroke="none"> <path d="M1181 1789 c-45 -14 -103 -53 -130 -90 -47 -63 -51 -94 -51 -389 l0 -277 25 5 25 4 0 262 c0 151 5 277 11 299 12 44 59 101 103 125 28 15 83 17 526 20 343 2 509 0 540 -8 58 -15 105 -51 130 -100 19 -37 20 -59 20 -360 0 -301 -1 -323 -20 -360 -25 -49 -72 -85 -130 -100 -31 -7 -184 -10 -478 -8 l-432 3 0 -28 0 -28 468 3 c458 3 468 3 508 25 59 31 110 93 128 154 23 77 23 601 0 678 -18 61 -69 123 -128 154 -40 22 -48 22 -561 24 -317 1 -533 -2 -554 -8z"/> <path d="M1156 1529 c-44 -34 -33 -80 25 -110 22 -11 39 -26 39 -33 0 -22 -31 -28 -50 -11 -17 15 -19 14 -34 -6 -14 -20 -14 -23 2 -35 28 -22 86 -17 110 9 38 40 27 79 -29 108 -38 19 -50 41 -29 54 6 4 18 1 26 -6 12 -10 18 -9 32 5 16 16 16 18 -2 32 -28 20 -59 18 -90 -7z"/> <path d="M1310 1545 c-1 0 -2 -51 -3 -113 l-2 -112 27 0 c27 0 27 1 21 45 -6 44 -5 45 23 45 44 0 74 25 74 63 0 50 -13 61 -79 67 -34 3 -61 6 -61 5z m74 -41 c34 -13 14 -64 -25 -64 -10 0 -12 53 -2 63 8 8 8 8 27 1z"/> <path d="M1490 1433 l0 -113 65 0 c61 0 65 1 65 23 0 20 -4 22 -40 19 -37 -4 -40 -2 -40 22 0 24 4 26 40 26 35 0 40 3 40 23 0 20 -4 22 -40 19 -37 -4 -40 -2 -40 22 0 24 4 26 40 26 35 0 40 3 40 23 0 21 -4 22 -65 22 l-65 0 0 -112z"/> <path d="M1724 1540 c-28 -11 -61 -54 -69 -89 -8 -37 16 -95 48 -116 17 -11 41 -15 74 -13 45 3 48 5 51 32 3 25 1 28 -15 21 -39 -16 -60 -16 -81 2 -33 28 -37 64 -11 97 22 28 46 31 92 11 14 -6 17 -2 17 23 0 25 -5 30 -31 36 -39 7 -48 7 -75 -4z"/> <path d="M1867 1543 c-4 -3 -7 -55 -7 -115 l0 -108 25 0 25 0 0 115 c0 105 -2 115 -18 115 -10 0 -22 -3 -25 -7z"/> <path d="M2036 1542 c-6 -10 -86 -211 -86 -217 0 -3 11 -5 24 -5 15 0 26 7 29 20 4 16 14 20 52 20 38 0 48 -4 52 -20 4 -14 14 -20 33 -20 l28 0 -39 93 c-22 50 -44 102 -49 115 -9 21 -34 30 -44 14z m38 -119 c6 -20 4 -23 -18 -23 -29 0 -31 7 -14 45 12 27 19 23 32 -22z"/> <path d="M2200 1435 l0 -115 60 0 c57 0 60 1 60 25 0 22 -4 25 -35 25 l-35 0 0 90 c0 89 0 90 -25 90 l-25 0 0 -115z"/> <path d="M1284 1206 c-29 -29 -34 -41 -34 -79 0 -135 182 -159 219 -29 22 75 -28 142 -106 142 -38 0 -50 -5 -79 -34z m114 -23 c30 -26 33 -81 6 -107 -38 -39 -104 -7 -104 51 0 61 55 92 98 56z"/> <path d="M1517 1128 c2 -111 2 -113 25 -113 21 0 23 4 20 48 l-3 47 39 0 c31 0 41 4 45 20 5 18 0 20 -39 20 -40 0 -44 2 -44 25 0 22 4 25 39 25 30 0 40 4 44 20 5 19 0 20 -61 20 l-67 0 2 -112z"/> <path d="M1685 1127 l0 -112 25 0 c23 0 24 3 21 48 l-3 47 41 0 c34 0 41 3 41 20 0 17 -7 20 -40 20 -36 0 -40 3 -40 25 0 23 4 25 40 25 33 0 40 3 40 20 0 18 -7 20 -62 20 l-63 0 0 -113z"/> <path d="M1850 1128 l0 -113 65 0 c61 0 65 1 65 23 0 19 -5 22 -40 22 -36 0 -40 2 -40 26 0 24 3 26 40 22 36 -3 40 -1 40 19 0 20 -5 23 -40 23 -36 0 -40 2 -40 26 0 24 3 26 40 22 36 -3 40 -1 40 19 0 22 -4 23 -65 23 l-65 0 0 -112z"/> <path d="M2020 1125 l0 -115 24 0 c23 0 25 5 28 48 l3 47 30 -47 c24 -38 36 -48 58 -48 34 0 34 4 -3 50 -36 45 -36 44 -10 70 11 11 20 31 20 45 0 43 -33 65 -95 65 l-55 0 0 -115z m98 51 c2 -10 -2 -22 -10 -27 -25 -17 -38 -9 -38 22 0 26 3 30 22 27 13 -2 24 -11 26 -22z"/> <path d="M1014 979 c3 -17 6 -59 6 -92 0 -72 10 -67 26 11 7 31 15 69 19 85 7 25 5 27 -25 27 -31 0 -32 -1 -26 -31z"/> <path d="M1104 860 c-28 -44 -50 -80 -48 -80 3 0 38 28 80 62 l75 62 -23 18 c-13 10 -25 17 -28 17 -3 0 -28 -36 -56 -79z"/> <path d="M751 841 c-20 -20 -39 -87 -28 -98 3 -3 -1 -22 -9 -43 -15 -37 -14 -40 17 -101 17 -35 50 -87 73 -116 35 -44 46 -52 76 -53 19 0 44 -7 54 -15 11 -8 39 -15 63 -15 35 0 46 5 60 27 41 63 4 199 -87 319 -73 97 -174 140 -219 95z m134 -106 c55 -56 108 -152 120 -217 9 -50 1 -61 -34 -43 -68 35 -163 181 -177 273 -6 39 -5 42 16 42 13 0 42 -21 75 -55z m-105 -49 c0 -23 60 -130 100 -177 l39 -47 -30 2 c-32 2 -89 48 -89 73 0 7 -4 13 -8 13 -11 0 -43 56 -35 64 3 3 1 6 -5 6 -16 0 -16 62 0 78 13 13 28 7 28 -12z"/> <path d="M870 665 c0 -15 54 -84 61 -79 15 9 10 30 -12 58 -18 23 -49 36 -49 21z"/> <path d="M1193 791 c-39 -14 -74 -29 -77 -32 -6 -6 166 1 173 7 6 5 -9 54 -17 53 -4 -1 -39 -13 -79 -28z"/> <path d="M658 608 c-14 -19 -42 -42 -62 -53 -28 -15 -36 -26 -36 -47 0 -62 49 -132 101 -143 20 -5 38 1 66 19 21 14 53 28 70 32 l33 6 -39 44 c-21 24 -54 73 -73 109 l-35 66 -25 -33z m39 -58 c3 -11 9 -20 14 -20 5 0 9 -7 9 -15 0 -8 4 -15 8 -15 5 0 14 -11 22 -24 14 -27 7 -38 -38 -63 -33 -19 -53 -16 -84 14 -38 36 -37 72 4 112 37 36 58 39 65 11z"/> <path d="M752 368 l-33 -21 42 -43 c24 -24 51 -44 61 -44 9 0 33 14 53 31 28 25 33 34 24 45 -6 8 -24 14 -39 14 -15 0 -35 9 -45 20 -22 24 -21 24 -63 -2z m78 -95 c0 -9 -37 18 -65 48 -29 31 -28 31 18 -5 26 -21 47 -40 47 -43z"/> </g> </svg> 