<svg version="1.0" xmlns="http://www.w3.org/2000/svg"  width="200px" height="200px" viewBox="0 0 300.000000 233.000000"  preserveAspectRatio="xMidYMid meet">  <g transform="translate(0.000000,233.000000) scale(0.100000,-0.100000)" fill="#BF2EF0" stroke="none"> <path d="M628 1815 c-15 -9 -33 -32 -43 -58 -14 -38 -16 -93 -13 -472 3 -472 2 -460 64 -490 27 -13 96 -15 421 -15 l388 0 23 -53 c32 -75 116 -182 180 -230 30 -23 84 -51 119 -63 58 -20 69 -20 113 -9 116 31 221 119 299 253 80 137 103 249 99 477 l-3 160 -102 3 -103 3 0 205 c0 220 -6 256 -51 288 -21 14 -90 16 -694 16 -565 -1 -674 -3 -697 -15z m1367 -50 c25 -24 25 -25 25 -231 l0 -206 -30 6 c-17 3 -59 17 -94 31 l-62 25 -42 -20 c-66 -32 -164 -50 -285 -53 l-112 -2 -3 -117 -3 -118 -319 0 c-307 0 -321 -1 -340 -20 -15 -15 -20 -33 -20 -73 0 -97 -20 -91 366 -97 l338 -5 7 -28 7 -27 -384 0 c-371 0 -385 1 -404 20 -19 19 -20 33 -20 451 0 285 4 437 11 450 6 11 20 24 32 29 12 5 311 9 665 9 l643 1 24 -25z m-139 -434 c25 -25 155 -53 264 -58 l115 -6 -6 -181 c-7 -198 -19 -250 -82 -371 -68 -128 -213 -246 -308 -248 -96 -3 -240 113 -312 251 -65 124 -79 187 -85 380 l-5 172 89 0 c99 0 196 18 264 48 54 24 53 24 66 13z m-457 -346 l2 -45 -321 0 -320 0 0 45 0 45 318 0 318 0 3 -45z"/> <path d="M812 1724 c-12 -8 -22 -26 -22 -39 0 -18 -4 -23 -15 -19 -8 4 -26 -1 -40 -10 -23 -15 -25 -22 -25 -95 0 -101 10 -111 107 -111 73 0 103 15 103 53 0 11 8 17 23 17 43 0 57 29 57 113 0 98 -9 107 -98 107 -45 0 -75 -5 -90 -16z m148 -94 l0 -60 -60 0 -60 0 0 60 0 60 60 0 60 0 0 -60z m-170 -44 c0 -38 20 -60 58 -61 14 0 27 -6 30 -12 3 -10 -14 -13 -62 -13 l-66 0 0 60 c0 53 2 60 20 60 16 0 20 -7 20 -34z"/> <path d="M1184 1689 c-17 -28 22 -31 351 -31 185 0 339 3 342 6 3 3 3 12 0 21 -6 13 -49 15 -346 15 -234 0 -342 -3 -347 -11z"/> <path d="M1185 1580 c-4 -6 -1 -17 5 -25 10 -13 65 -15 339 -15 179 0 332 4 340 9 8 5 11 16 8 25 -6 14 -44 16 -346 16 -225 0 -342 -4 -346 -10z"/> <path d="M1185 1470 c-4 -6 -1 -18 6 -26 10 -12 62 -14 338 -14 180 1 333 5 340 9 8 5 11 16 8 25 -6 14 -44 16 -346 16 -225 0 -342 -4 -346 -10z"/> <path d="M736 1302 c-13 -22 13 -32 75 -30 51 2 64 6 67 21 3 15 -5 17 -67 17 -38 0 -72 -4 -75 -8z"/> <path d="M917 1302 c-14 -22 12 -33 74 -30 49 2 64 7 64 18 0 12 -15 16 -67 18 -36 2 -69 -1 -71 -6z"/> <path d="M1097 1302 c-14 -22 12 -33 74 -30 49 2 64 7 64 18 0 12 -15 16 -67 18 -36 2 -69 -1 -71 -6z"/> <path d="M1754 1201 c-56 -26 -96 -80 -102 -139 -4 -41 -8 -49 -36 -62 l-31 -15 -3 -147 c-4 -220 5 -228 248 -228 160 0 198 8 235 50 18 20 20 36 20 168 l0 147 -31 20 c-26 16 -33 29 -38 68 -5 38 -16 58 -48 93 -60 65 -135 81 -214 45z m153 -52 c39 -24 63 -65 63 -109 l0 -30 -141 0 -142 0 6 36 c17 103 127 156 214 103z m133 -319 c0 -178 10 -170 -205 -170 -163 0 -166 0 -190 25 -24 23 -25 30 -25 143 0 65 3 122 7 125 3 4 98 7 210 7 l203 0 0 -130z"/> <path d="M1779 909 c-21 -21 -22 -31 -4 -114 3 -16 8 -40 11 -52 13 -64 94 -43 94 25 0 20 7 46 15 56 20 27 19 49 -6 80 -26 33 -79 36 -110 5z m72 -35 c10 -12 10 -20 1 -35 -7 -10 -13 -36 -14 -56 l-1 -38 -4 35 c-2 19 -9 45 -15 57 -11 23 -5 53 10 53 5 0 15 -7 23 -16z"/> </g> </svg>