<svg version="1.0" xmlns="http://www.w3.org/2000/svg"  width="200px" height="200px" viewBox="0 0 300.000000 291.000000"  preserveAspectRatio="xMidYMid meet">  <g transform="translate(0.000000,291.000000) scale(0.100000,-0.100000)" fill="#BF2EF0" stroke="none"> <path d="M945 2642 c-59 -27 -101 -81 -114 -144 -8 -38 -11 -325 -9 -958 l3 -905 22 -42 c22 -40 69 -83 105 -96 10 -4 156 -7 324 -7 314 -2 331 0 317 36 -4 10 -71 14 -311 16 -299 3 -308 4 -338 25 -67 48 -64 -6 -64 1005 0 849 1 915 18 947 33 66 58 75 205 81 l132 5 0 25 0 25 -125 2 c-104 2 -132 0 -165 -15z"/> <path d="M1554 2645 c-16 -40 -1 -45 149 -45 133 0 147 -2 178 -23 58 -39 69 -74 69 -228 0 -119 2 -138 17 -143 9 -4 21 -2 26 3 12 12 9 295 -4 329 -15 39 -58 82 -104 103 -54 25 -322 28 -331 4z"/> <path d="M1251 2506 c-26 -15 -50 -51 -51 -79 0 -32 28 -74 58 -86 20 -9 76 -11 170 -9 131 3 142 5 165 26 49 46 42 119 -14 147 -38 20 -293 21 -328 1z m316 -62 c3 -9 2 -24 -4 -33 -8 -13 -33 -17 -134 -19 -149 -3 -169 0 -169 32 0 12 3 26 7 29 3 4 71 7 150 7 124 0 144 -2 150 -16z"/> <path d="M2176 2245 c-3 -8 2 -21 10 -30 12 -12 42 -15 149 -15 107 0 137 3 149 15 8 9 13 22 10 30 -5 12 -34 15 -159 15 -125 0 -154 -3 -159 -15z"/> <path d="M1107 2072 c-13 -14 -17 -38 -17 -94 0 -96 4 -104 52 -129 50 -25 65 -62 44 -106 -8 -17 -25 -34 -38 -38 -52 -16 -58 -31 -58 -136 0 -153 -61 -139 620 -139 681 0 620 -14 620 139 0 105 -6 120 -58 136 -13 4 -30 21 -39 39 -13 29 -14 37 -2 62 8 16 29 36 47 45 47 21 52 33 52 125 0 66 -3 84 -18 97 -17 15 -73 17 -604 17 -554 0 -586 -1 -601 -18z m1163 -97 c0 -62 -1 -65 -30 -80 -91 -47 -91 -204 0 -238 30 -11 30 -12 30 -89 l0 -78 -561 2 -561 3 0 74 c0 73 0 74 32 89 91 44 92 189 1 236 -27 14 -29 21 -33 77 -1 33 -1 63 1 65 2 2 256 4 563 4 l558 0 0 -65z"/> <path d="M1926 1945 c-3 -9 -6 -43 -6 -75 0 -61 16 -88 45 -76 13 5 15 20 13 83 -3 71 -5 78 -24 81 -13 2 -24 -4 -28 -13z"/> <path d="M1430 1845 c-7 -8 -10 -22 -6 -30 4 -12 24 -15 96 -15 72 0 92 3 96 15 13 32 -15 45 -96 45 -56 0 -81 -4 -90 -15z"/> <path d="M1937 1728 c-13 -7 -17 -23 -17 -67 0 -62 14 -86 44 -75 13 5 16 21 16 74 0 71 -10 87 -43 68z"/> <path d="M1426 1694 c-14 -38 10 -45 148 -42 l131 3 0 25 0 25 -136 3 c-120 2 -137 0 -143 -14z"/> <path d="M1957 1324 c-4 -4 -7 -71 -7 -150 0 -116 3 -143 15 -148 34 -13 40 16 35 160 -4 115 -8 139 -20 142 -9 1 -19 0 -23 -4z"/> <path d="M2178 1318 c-13 -34 2 -38 157 -38 114 0 154 3 158 13 12 33 -3 37 -158 37 -113 0 -154 -3 -157 -12z"/> <path d="M1362 1267 c-147 -54 -196 -239 -94 -357 45 -53 101 -79 170 -80 80 0 159 40 146 75 -7 17 -49 20 -59 5 -3 -5 -24 -14 -45 -20 -78 -21 -176 31 -201 107 -25 77 12 172 81 208 63 32 173 10 207 -42 10 -15 24 -23 37 -21 53 8 12 77 -68 114 -56 26 -120 30 -174 11z"/> <path d="M1463 1088 l-62 -62 -25 27 c-25 27 -50 28 -60 1 -7 -18 60 -94 82 -94 22 0 162 140 162 161 0 13 -18 29 -33 29 -1 0 -30 -28 -64 -62z"/> <path d="M1617 1080 c-52 -41 -47 -65 47 -227 47 -82 95 -163 107 -180 21 -33 13 -46 -11 -18 -31 38 -107 6 -124 -52 -10 -33 8 -59 107 -156 107 -104 152 -131 223 -131 l51 0 48 -74 c37 -57 53 -72 69 -70 36 5 29 32 -29 117 -57 82 -62 85 -126 82 -21 -2 -54 6 -75 17 -40 20 -214 183 -214 200 0 5 7 15 15 22 12 10 21 8 49 -14 51 -38 106 -31 106 13 0 9 -50 103 -111 209 -61 107 -108 200 -105 208 3 8 16 14 29 14 20 0 37 -23 106 -140 46 -77 87 -142 91 -145 14 -9 40 6 40 24 0 9 -16 41 -34 71 -26 41 -32 58 -25 72 18 34 38 18 94 -77 41 -70 61 -95 76 -95 33 0 33 27 -1 80 -33 51 -36 83 -9 88 12 2 31 -22 63 -77 46 -81 63 -94 85 -67 10 12 7 23 -14 56 -25 39 -25 44 -11 58 22 22 28 14 111 -131 66 -115 68 -118 61 -171 -6 -52 -4 -57 38 -117 26 -40 51 -65 65 -67 37 -6 35 25 -5 80 -34 48 -38 59 -38 118 -1 58 -6 74 -46 144 -25 43 -63 106 -85 140 -36 55 -44 61 -78 64 -21 2 -45 -2 -53 -9 -12 -10 -18 -8 -29 8 -20 29 -60 37 -96 19 -28 -14 -32 -13 -50 5 -23 23 -81 25 -104 3 -19 -19 -17 -21 -45 35 -45 90 -106 116 -163 71z"/> </g> </svg>